<svg width="531" height="69" viewBox="0 0 531 69" fill="none" xmlns="http://www.w3.org/2000/svg">
<g filter="url(#filter0_f_1_488)">
<path d="M34 58C47.2548 58 58 47.2548 58 34C58 20.7452 47.2548 10 34 10C20.7452 10 10 20.7452 10 34C10 47.2548 20.7452 58 34 58Z" fill="#E4DCFE"/>
</g>
<path fill-rule="evenodd" clip-rule="evenodd" d="M35 43C40.5228 43 45 38.5228 45 33C45 27.4772 40.5228 23 35 23C29.4772 23 25 27.4772 25 33C25 38.5228 29.4772 43 35 43ZM36 27C36 26.4477 35.5523 26 35 26C34.4477 26 34 26.4477 34 27V33V33.4142L34.2929 33.7071L37.2929 36.7071C37.6834 37.0976 38.3166 37.0976 38.7071 36.7071C39.0976 36.3166 39.0976 35.6834 38.7071 35.2929L36 32.5858V27Z" fill="white"/>
<path fill-rule="evenodd" clip-rule="evenodd" d="M34 44C39.5228 44 44 39.5228 44 34C44 28.4772 39.5228 24 34 24C28.4772 24 24 28.4772 24 34C24 39.5228 28.4772 44 34 44ZM35 28C35 27.4477 34.5523 27 34 27C33.4477 27 33 27.4477 33 28V34V34.4142L33.2929 34.7071L36.2929 37.7071C36.6834 38.0976 37.3166 38.0976 37.7071 37.7071C38.0976 37.3166 38.0976 36.6834 37.7071 36.2929L35 33.5858V28Z" fill="#6C3EF8"/>
<path d="M87.4261 32C87.0483 29.9119 85.3778 28.679 83.3295 28.679C80.7244 28.679 78.8352 30.6875 78.8352 33.9091C78.8352 37.1307 80.7244 39.1392 83.3295 39.1392C85.3778 39.1392 87.0483 37.9062 87.4261 35.8182H86.1932C85.8949 37.2301 84.6818 37.9858 83.3295 37.9858C81.4801 37.9858 80.0284 36.554 80.0284 33.9091C80.0284 31.2642 81.4801 29.8324 83.3295 29.8324C84.6818 29.8324 85.8949 30.5881 86.1932 32H87.4261ZM101.1 28.8182V35.4602C101.1 36.9517 100.076 38.0256 98.3759 38.0256C96.6756 38.0256 95.6515 36.9517 95.6515 35.4602V28.8182H94.4185V35.5597C94.4185 37.6477 95.9796 39.179 98.3759 39.179C100.772 39.179 102.333 37.6477 102.333 35.5597V28.8182H101.1ZM109.795 39H111.028V35.0227H113.256C113.345 35.0227 113.43 35.0227 113.514 35.0178L115.662 39H117.094L114.792 34.794C116.089 34.3516 116.696 33.2926 116.696 31.9403C116.696 30.1406 115.622 28.8182 113.236 28.8182H109.795V39ZM111.028 33.9091V29.9119H113.196C114.847 29.9119 115.483 30.7173 115.483 31.9403C115.483 33.1634 114.847 33.9091 113.216 33.9091H111.028ZM123.751 39H124.983V35.0227H127.211C127.3 35.0227 127.385 35.0227 127.469 35.0178L129.617 39H131.049L128.747 34.794C130.045 34.3516 130.651 33.2926 130.651 31.9403C130.651 30.1406 129.577 28.8182 127.191 28.8182H123.751V39ZM124.983 33.9091V29.9119H127.151C128.802 29.9119 129.438 30.7173 129.438 31.9403C129.438 33.1634 128.802 33.9091 127.171 33.9091H124.983ZM137.706 39H143.93V37.9062H138.939V34.446H143.532V33.3523H138.939V29.9119H143.85V28.8182H137.706V39ZM159.147 28.8182H157.934V36.8324H157.834L152.266 28.8182H151.073V39H152.306V31.0057H152.405L157.953 39H159.147V28.8182ZM166.057 29.9119H169.259V39H170.492V29.9119H173.693V28.8182H166.057V29.9119ZM189.534 39H190.767V34.446H195.181V33.3523H190.767V29.9119H195.639V28.8182H189.534V39ZM203.983 28.8182H202.751V39H203.983V28.8182ZM211.456 39H217.422V37.9062H212.689V28.8182H211.456V39ZM224.331 39H230.555V37.9062H225.564V34.446H230.157V33.3523H225.564V29.9119H230.475V28.8182H224.331V39ZM243.266 31.3636H244.459C244.404 29.8274 242.988 28.679 241.019 28.679C239.07 28.679 237.539 29.8125 237.539 31.5227C237.539 32.8949 238.533 33.7102 240.124 34.1676L241.377 34.5256C242.451 34.8239 243.405 35.2017 243.405 36.2159C243.405 37.3295 242.331 38.0653 240.919 38.0653C239.706 38.0653 238.632 37.5284 238.533 36.375H237.26C237.38 38.0455 238.732 39.179 240.919 39.179C243.266 39.179 244.598 37.8864 244.598 36.2358C244.598 34.3267 242.789 33.7102 241.735 33.4318L240.701 33.1534C239.945 32.9545 238.732 32.5568 238.732 31.4631C238.732 30.4886 239.627 29.7727 240.979 29.7727C242.212 29.7727 243.147 30.3594 243.266 31.3636Z" fill="#6C3EF8"/>
<defs>
<filter id="filter0_f_1_488" x="0" y="0" width="68" height="68" filterUnits="userSpaceOnUse" color-interpolation-filters="sRGB">
<feFlood flood-opacity="0" result="BackgroundImageFix"/>
<feBlend mode="normal" in="SourceGraphic" in2="BackgroundImageFix" result="shape"/>
<feGaussianBlur stdDeviation="5" result="effect1_foregroundBlur_1_488"/>
</filter>
</defs>
</svg>
