<svg width="531" height="69" viewBox="0 0 531 69" fill="none" xmlns="http://www.w3.org/2000/svg">
<g filter="url(#filter0_f_1_466)">
<path d="M34 58C47.2548 58 58 47.2548 58 34C58 20.7452 47.2548 10 34 10C20.7452 10 10 20.7452 10 34C10 47.2548 20.7452 58 34 58Z" fill="#E4DCFE"/>
</g>
<path fill-rule="evenodd" clip-rule="evenodd" d="M35 43C35 43 44 37 44 30C44 25.0294 39.9706 21 35 21C30.0294 21 26 25.0294 26 30C26 37 35 43 35 43ZM35 33C36.6569 33 38 31.6569 38 30C38 28.3431 36.6569 27 35 27C33.3431 27 32 28.3431 32 30C32 31.6569 33.3431 33 35 33Z" fill="white"/>
<path fill-rule="evenodd" clip-rule="evenodd" d="M34 44C34 44 43 38 43 31C43 26.0294 38.9706 22 34 22C29.0294 22 25 26.0294 25 31C25 38 34 44 34 44ZM34 34C35.6569 34 37 32.6569 37 31C37 29.3431 35.6569 28 34 28C32.3431 28 31 29.3431 31 31C31 32.6569 32.3431 34 34 34Z" fill="#6C3EF8"/>
<path d="M79.6506 39L80.6747 36.1165H84.7912L85.8153 39H87.108L83.3693 28.8182H82.0966L78.358 39H79.6506ZM81.0625 35.0227L82.6932 30.429H82.7727L84.4034 35.0227H81.0625ZM101.409 32C101.031 29.9119 99.3603 28.679 97.312 28.679C94.7069 28.679 92.8176 30.6875 92.8176 33.9091C92.8176 37.1307 94.7069 39.1392 97.312 39.1392C99.3603 39.1392 101.031 37.9062 101.409 35.8182H100.176C99.8773 37.2301 98.6642 37.9858 97.312 37.9858C95.4625 37.9858 94.0108 36.554 94.0108 33.9091C94.0108 31.2642 95.4625 29.8324 97.312 29.8324C98.6642 29.8324 99.8773 30.5881 100.176 32H101.409ZM107.844 29.9119H111.046V39H112.279V29.9119H115.48V28.8182H107.844V29.9119ZM123.616 28.8182H122.383V39H123.616V28.8182ZM131.506 28.8182H130.213L133.952 39H135.225L138.963 28.8182H137.671L134.648 37.3892H134.529L131.506 28.8182ZM146.782 28.8182H145.549V39H146.782V28.8182ZM153.698 29.9119H156.899V39H158.132V29.9119H161.334V28.8182H153.698V29.9119ZM167.362 28.8182L171.041 34.804V39H172.274V34.804L175.953 28.8182H174.541L171.717 33.571H171.598L168.774 28.8182H167.362ZM191.903 39L192.927 36.1165H197.043L198.067 39H199.36L195.621 28.8182H194.349L190.61 39H191.903ZM193.314 35.0227L194.945 30.429H195.025L196.655 35.0227H193.314ZM212.428 32H213.7C213.322 30.0312 211.672 28.679 209.524 28.679C206.914 28.679 205.07 30.6875 205.07 33.9091C205.07 37.1307 206.899 39.1392 209.604 39.1392C212.03 39.1392 213.76 37.5234 213.76 35.0028V33.9091H209.882V35.0028H212.567C212.532 36.8324 211.329 37.9858 209.604 37.9858C207.714 37.9858 206.263 36.554 206.263 33.9091C206.263 31.2642 207.714 29.8324 209.524 29.8324C210.996 29.8324 211.995 30.6626 212.428 32ZM227.832 32H229.105C228.727 30.0312 227.076 28.679 224.928 28.679C222.318 28.679 220.474 30.6875 220.474 33.9091C220.474 37.1307 222.303 39.1392 225.008 39.1392C227.434 39.1392 229.164 37.5234 229.164 35.0028V33.9091H225.286V35.0028H227.971C227.936 36.8324 226.733 37.9858 225.008 37.9858C223.119 37.9858 221.667 36.554 221.667 33.9091C221.667 31.2642 223.119 29.8324 224.928 29.8324C226.4 29.8324 227.399 30.6626 227.832 32ZM236.276 39H237.509V35.0227H239.736C239.826 35.0227 239.91 35.0227 239.995 35.0178L242.142 39H243.574L241.272 34.794C242.57 34.3516 243.176 33.2926 243.176 31.9403C243.176 30.1406 242.103 28.8182 239.716 28.8182H236.276V39ZM237.509 33.9091V29.9119H239.676C241.327 29.9119 241.963 30.7173 241.963 31.9403C241.963 33.1634 241.327 33.9091 239.696 33.9091H237.509ZM250.231 39H256.455V37.9062H251.464V34.446H256.058V33.3523H251.464V29.9119H256.376V28.8182H250.231V39ZM270.558 32H271.831C271.453 30.0312 269.803 28.679 267.655 28.679C265.045 28.679 263.2 30.6875 263.2 33.9091C263.2 37.1307 265.03 39.1392 267.735 39.1392C270.161 39.1392 271.891 37.5234 271.891 35.0028V33.9091H268.013V35.0028H270.698C270.663 36.8324 269.46 37.9858 267.735 37.9858C265.845 37.9858 264.394 36.554 264.394 33.9091C264.394 31.2642 265.845 29.8324 267.655 29.8324C269.127 29.8324 270.126 30.6626 270.558 32ZM279.106 39L280.13 36.1165H284.246L285.27 39H286.563L282.824 28.8182H281.552L277.813 39H279.106ZM280.518 35.0227L282.148 30.429H282.228L283.858 35.0227H280.518ZM291.403 29.9119H294.604V39H295.837V29.9119H299.039V28.8182H291.403V29.9119ZM314.109 33.9091C314.109 30.6875 312.22 28.679 309.615 28.679C307.01 28.679 305.12 30.6875 305.12 33.9091C305.12 37.1307 307.01 39.1392 309.615 39.1392C312.22 39.1392 314.109 37.1307 314.109 33.9091ZM312.916 33.9091C312.916 36.554 311.464 37.9858 309.615 37.9858C307.765 37.9858 306.314 36.554 306.314 33.9091C306.314 31.2642 307.765 29.8324 309.615 29.8324C311.464 29.8324 312.916 31.2642 312.916 33.9091ZM321.182 39H322.415V35.0227H324.642C324.732 35.0227 324.816 35.0227 324.901 35.0178L327.049 39H328.48L326.179 34.794C327.476 34.3516 328.083 33.2926 328.083 31.9403C328.083 30.1406 327.009 28.8182 324.623 28.8182H321.182V39ZM322.415 33.9091V29.9119H324.583C326.233 29.9119 326.87 30.7173 326.87 31.9403C326.87 33.1634 326.233 33.9091 324.603 33.9091H322.415Z" fill="#6C3EF8"/>
<defs>
<filter id="filter0_f_1_466" x="0" y="0" width="68" height="68" filterUnits="userSpaceOnUse" color-interpolation-filters="sRGB">
<feFlood flood-opacity="0" result="BackgroundImageFix"/>
<feBlend mode="normal" in="SourceGraphic" in2="BackgroundImageFix" result="shape"/>
<feGaussianBlur stdDeviation="5" result="effect1_foregroundBlur_1_466"/>
</filter>
</defs>
</svg>
