<svg width="188" height="45" viewBox="0 0 188 45" fill="none" xmlns="http://www.w3.org/2000/svg">
<path d="M47.1282 35.1795H50.4453V27.3263H55.6943L60.7611 35.1795H64.552L59.1936 26.798C62.693 25.6359 64.8436 22.5016 64.8436 18.9096C64.8436 14.4019 61.4172 10.5281 56.0953 10.5281H49.4595C48.172 10.5281 47.1282 11.5709 47.1282 12.8573V35.1795ZM56.0953 24.4033H50.4453V13.4158H56.0953C59.4124 13.4158 61.5265 15.9514 61.5265 18.9096C61.5265 21.9029 59.4124 24.4033 56.0953 24.4033Z" fill="#141518"/>
<path d="M75.4676 21.1282C78.1284 21.1282 80.1337 22.889 80.1337 25.6711H70.547C70.6195 22.7834 72.6248 21.1282 75.4676 21.1282ZM83.0497 27.9954C83.1952 27.115 83.1952 26.4458 83.1952 25.9881C83.1952 21.9029 79.8419 18.7687 75.5408 18.7687C70.3283 18.7687 67.3752 22.3608 67.3752 27.1854C67.3752 31.7988 70.0731 35.5669 75.6498 35.5669C79.8053 35.5669 82.5026 33.1722 83.0497 30.4606H79.8419C79.3314 31.834 78.1284 32.9961 75.6498 32.9961C72.0047 32.9961 70.656 30.707 70.5104 27.9954H83.0497Z" fill="#141518"/>
<path d="M100.16 19.1913V21.9382C99.1028 20.0013 96.7698 18.7687 94.3643 18.7687C89.2974 18.7687 85.871 22.6425 85.871 27.1854C85.871 31.6931 89.2974 35.5669 94.3643 35.5669C96.7698 35.5669 99.1028 34.3343 100.16 32.3975V35.1795H103.295V19.1913H100.16ZM94.5464 32.82C91.1931 32.82 89.0056 30.2493 89.0056 27.1854C89.0056 24.1216 91.1931 21.5156 94.5464 21.5156C97.9728 21.5156 100.16 24.1216 100.16 27.1854C100.16 30.2493 97.9728 32.82 94.5464 32.82Z" fill="#141518"/>
<path d="M115.386 26.2698C112.323 25.319 110.611 25.0724 110.611 23.4525C110.611 22.0086 111.923 21.2339 113.672 21.2339C115.86 21.2339 117.026 22.2903 117.026 24.1568H120.088C120.088 20.9521 117.317 18.7687 113.709 18.7687C110.282 18.7687 107.548 20.3887 107.548 23.3821C107.548 26.2698 109.517 27.0093 112.032 27.7841C115.349 28.8758 117.317 29.0519 117.317 30.8479C117.317 32.4327 116.005 33.137 114 33.137C111.777 33.137 110.1 32.2214 110.1 29.7914H107.001C107.001 33.6652 110.209 35.5669 113.854 35.5669C117.572 35.5669 120.343 33.9822 120.343 30.7775C120.343 27.7489 117.901 27.0445 115.386 26.2698Z" fill="#141518"/>
<path d="M131.612 35.5669C136.935 35.5669 140.361 31.6931 140.361 27.1854C140.361 22.6425 136.935 18.7687 131.612 18.7687C126.363 18.7687 122.937 22.6425 122.937 27.1854C122.937 31.6931 126.363 35.5669 131.612 35.5669ZM131.612 32.82C128.258 32.82 126.072 30.2493 126.072 27.1854C126.072 24.1216 128.258 21.5156 131.612 21.5156C135.039 21.5156 137.226 24.1216 137.226 27.1854C137.226 30.2493 135.039 32.82 131.612 32.82Z" fill="#141518"/>
<path d="M143.634 35.1795H146.805V26.9389C146.805 24.0863 148.336 21.4804 151.507 21.4804C154.606 21.4804 155.699 23.7342 155.699 26.6924V35.1795H158.87V25.7416C158.87 23.4877 158.506 22.079 157.594 20.8817C156.611 19.5435 154.934 18.7687 152.637 18.7687C149.83 18.7687 147.789 20.0717 146.805 22.0086V19.1913H143.634V35.1795Z" fill="#141518"/>
<path d="M176.602 19.1913V21.9382C175.545 20.0013 173.212 18.7687 170.806 18.7687C165.74 18.7687 162.313 22.6425 162.313 27.1854C162.313 31.6931 165.74 35.5669 170.806 35.5669C173.212 35.5669 175.545 34.3343 176.602 32.3975V35.1795H179.736V19.1913H176.602ZM170.989 32.82C167.635 32.82 165.448 30.2493 165.448 27.1854C165.448 24.1216 167.635 21.5156 170.989 21.5156C174.415 21.5156 176.602 24.1216 176.602 27.1854C176.602 30.2493 174.415 32.82 170.989 32.82Z" fill="#141518"/>
<path d="M184.829 35.1795H188V12.275C188 11.3102 187.217 10.5281 186.251 10.5281H184.829V35.1795Z" fill="#141518"/>
<path d="M27.547 44.3667C24.8583 44.3667 21.4341 44.3644 18.0196 44.3628C14.6324 44.3603 11.2549 44.3587 8.61274 44.3587L7.63697 44.3667C3.78597 44.3667 0.652771 41.2364 0.652771 37.3891V7.58693C0.652771 3.73949 3.78597 0.609184 7.63697 0.609184H16.0286C25.9072 0.609184 33.9444 8.63889 33.9444 18.5084C33.9444 22.7582 32.4116 26.8771 29.6843 30.0917C30.8209 31.607 31.9373 33.1867 32.7596 34.3607C34.1245 36.321 34.2877 38.8401 33.1888 40.9426C32.0941 43.0546 29.9327 44.3667 27.547 44.3667Z" stroke="#BAA7FC" stroke-miterlimit="10"/>
<path d="M27.547 42.0902C24.8591 42.0902 21.4349 42.0878 18.0212 42.0862C14.63 42.0837 11.2476 42.0822 8.60394 42.0822L7.63776 42.0902C5.0431 42.0902 2.93152 39.9814 2.93152 37.3883V7.587C2.93152 4.99473 5.0423 2.88511 7.63776 2.88511H16.0294C24.6517 2.88511 31.6673 9.89335 31.6673 18.5085C31.6673 22.8835 29.8434 27.0008 26.6925 29.9343C28.1266 31.7485 29.7036 33.9665 30.894 35.6658C31.7717 36.9266 31.8755 38.5431 31.1689 39.8922C30.4664 41.2486 29.0798 42.0902 27.547 42.0902Z" stroke="#6C3EF8" stroke-miterlimit="10"/>
<path d="M23.4531 29.6129C27.033 27.2177 29.3983 23.1347 29.3983 18.505C29.3983 11.1266 23.4129 5.1467 16.0275 5.1467H15.9873H7.64468C7.63665 5.1467 7.63665 5.1467 7.62862 5.1467C6.2851 5.1467 5.19904 6.23176 5.19904 7.57402V36.4448V37.4013C5.19904 38.7435 6.2851 39.8286 7.62862 39.8286L8.58599 39.8206C13.8956 39.8206 22.19 39.8286 27.556 39.8286C28.2318 39.8286 28.8512 39.4508 29.1569 38.8561C29.4707 38.2613 29.4224 37.5379 29.0363 36.9833C27.6686 35.0302 25.1586 31.4857 23.4531 29.6129Z" fill="#6E40F8"/>
<path opacity="0.3" d="M20.1877 29.2844C27.0745 29.2844 32.6574 23.7067 32.6574 16.8263C32.6574 9.94584 27.0745 4.36813 20.1877 4.36813C13.3009 4.36813 7.71799 9.94584 7.71799 16.8263C7.71799 23.7067 13.3009 29.2844 20.1877 29.2844Z" fill="url(#paint0_radial_1_387)"/>
<path opacity="0.2" d="M14.8376 23.0954C20.1472 23.0954 24.4514 18.7412 24.4514 13.37C24.4514 7.99883 20.1472 3.64461 14.8376 3.64461C9.52813 3.64461 5.22392 7.99883 5.22392 13.37C5.22392 18.7412 9.52813 23.0954 14.8376 23.0954Z" fill="url(#paint1_radial_1_387)"/>
<defs>
<radialGradient id="paint0_radial_1_387" cx="0" cy="0" r="1" gradientUnits="userSpaceOnUse" gradientTransform="translate(20.1877 16.8263) rotate(90) scale(12.4582 12.4697)">
<stop stop-color="#E4DCFE"/>
<stop offset="1" stop-color="white" stop-opacity="0"/>
</radialGradient>
<radialGradient id="paint1_radial_1_387" cx="0" cy="0" r="1" gradientUnits="userSpaceOnUse" gradientTransform="translate(14.8376 13.37) rotate(90) scale(9.72541 9.61372)">
<stop stop-color="#E4DCFE"/>
<stop offset="1" stop-color="white" stop-opacity="0"/>
</radialGradient>
</defs>
</svg>
