<svg width="531" height="69" viewBox="0 0 531 69" fill="none" xmlns="http://www.w3.org/2000/svg">
<g filter="url(#filter0_f_1_476)">
<path d="M34 59C47.2548 59 58 48.2548 58 35C58 21.7452 47.2548 11 34 11C20.7452 11 10 21.7452 10 35C10 48.2548 20.7452 59 34 59Z" fill="#E4DCFE"/>
</g>
<path d="M31.7275 32.4725V27.8907C31.7275 27.6497 31.9229 27.4544 32.1639 27.4544H40.0184C40.2594 27.4544 40.4548 27.259 40.4548 27.018V24.2068C40.4548 23.8096 40.9424 23.6189 41.2118 23.9108L46.7271 29.8857C46.8814 30.0528 46.8814 30.3105 46.7271 30.4776L41.2118 36.4524C40.9424 36.7443 40.4548 36.5537 40.4548 36.1565V33.3453C40.4548 33.1043 40.2594 32.9089 40.0184 32.9089H32.1639C31.9229 32.9089 31.7275 32.7135 31.7275 32.4725Z" fill="white"/>
<path d="M38.2725 35.5275V40.1093C38.2725 40.3503 38.0771 40.5456 37.8361 40.5456H29.9816C29.7406 40.5456 29.5452 40.741 29.5452 40.982V43.7932C29.5452 44.1904 29.0576 44.3811 28.7882 44.0892L23.2729 38.1143C23.1186 37.9472 23.1186 37.6895 23.2729 37.5224L28.7882 31.5475C29.0576 31.2557 29.5452 31.4463 29.5452 31.8435V34.6547C29.5452 34.8957 29.7406 35.0911 29.9816 35.0911H37.8361C38.0771 35.0911 38.2725 35.2865 38.2725 35.5275Z" fill="white"/>
<path d="M30.7275 33.4725V28.8907C30.7275 28.6497 30.9229 28.4544 31.1639 28.4544H39.0184C39.2594 28.4544 39.4548 28.259 39.4548 28.018V25.2068C39.4548 24.8096 39.9424 24.6189 40.2118 24.9108L45.7271 30.8857C45.8814 31.0528 45.8814 31.3105 45.7271 31.4776L40.2118 37.4524C39.9424 37.7443 39.4548 37.5537 39.4548 37.1565V34.3453C39.4548 34.1043 39.2594 33.9089 39.0184 33.9089H31.1639C30.9229 33.9089 30.7275 33.7135 30.7275 33.4725Z" fill="#6C3EF8"/>
<path d="M37.2725 36.5275V41.1093C37.2725 41.3503 37.0771 41.5456 36.8361 41.5456H28.9816C28.7406 41.5456 28.5452 41.741 28.5452 41.982V44.7932C28.5452 45.1904 28.0576 45.3811 27.7882 45.0892L22.2729 39.1143C22.1186 38.9472 22.1186 38.6895 22.2729 38.5224L27.7882 32.5475C28.0576 32.2557 28.5452 32.4463 28.5452 32.8435V35.6547C28.5452 35.8957 28.7406 36.0911 28.9816 36.0911H36.8361C37.0771 36.0911 37.2725 36.2865 37.2725 36.5275Z" fill="#6C3EF8"/>
<path d="M79.233 39H85.1989V37.9062H80.4659V28.8182H79.233V39ZM93.3409 28.8182H92.108V39H93.3409V28.8182ZM108.887 28.8182H107.674V36.8324H107.574L102.006 28.8182H100.813V39H102.046V31.0057H102.145L107.694 39H108.887V28.8182ZM116.354 39H117.587V35.6989L118.86 34.267L122.4 39H123.891L119.615 33.4119L123.891 28.8182H122.28L117.706 33.8693H117.587V28.8182H116.354V39ZM136.055 31.3636H137.248C137.194 29.8274 135.777 28.679 133.808 28.679C131.859 28.679 130.328 29.8125 130.328 31.5227C130.328 32.8949 131.322 33.7102 132.913 34.1676L134.166 34.5256C135.24 34.8239 136.194 35.2017 136.194 36.2159C136.194 37.3295 135.12 38.0653 133.708 38.0653C132.495 38.0653 131.422 37.5284 131.322 36.375H130.049C130.169 38.0455 131.521 39.179 133.708 39.179C136.055 39.179 137.387 37.8864 137.387 36.2358C137.387 34.3267 135.578 33.7102 134.524 33.4318L133.49 33.1534C132.734 32.9545 131.521 32.5568 131.521 31.4631C131.521 30.4886 132.416 29.7727 133.768 29.7727C135.001 29.7727 135.936 30.3594 136.055 31.3636ZM153.77 39L154.794 36.1165H158.91L159.934 39H161.227L157.488 28.8182H156.216L152.477 39H153.77ZM155.182 35.0227L156.812 30.429H156.892L158.523 35.0227H155.182ZM175.887 28.8182H174.674V36.8324H174.574L169.006 28.8182H167.813V39H169.046V31.0057H169.145L174.694 39H175.887V28.8182ZM186.496 39C189.598 39 191.348 37.071 191.348 33.8892C191.348 30.7273 189.598 28.8182 186.635 28.8182H183.354V39H186.496ZM184.587 37.9062V29.9119H186.556C188.942 29.9119 190.155 31.4233 190.155 33.8892C190.155 36.375 188.942 37.9062 186.417 37.9062H184.587ZM207.354 39H211.033C213.439 39 214.434 37.8267 214.434 36.2955C214.434 34.6847 213.32 33.8097 212.385 33.75V33.6506C213.26 33.4119 214.036 32.8352 214.036 31.5227C214.036 30.0312 213.042 28.8182 210.914 28.8182H207.354V39ZM208.587 37.9062V34.3665H211.093C212.425 34.3665 213.26 35.2614 213.26 36.2955C213.26 37.1903 212.644 37.9062 211.033 37.9062H208.587ZM208.587 33.2926V29.9119H210.914C212.266 29.9119 212.863 30.6278 212.863 31.5227C212.863 32.5966 211.988 33.2926 210.874 33.2926H208.587ZM221.877 39L222.901 36.1165H227.018L228.042 39H229.335L225.596 28.8182H224.323L220.585 39H221.877ZM223.289 35.0227L224.92 30.429H224.999L226.63 35.0227H223.289ZM243.635 32C243.257 29.9119 241.587 28.679 239.539 28.679C236.933 28.679 235.044 30.6875 235.044 33.9091C235.044 37.1307 236.933 39.1392 239.539 39.1392C241.587 39.1392 243.257 37.9062 243.635 35.8182H242.402C242.104 37.2301 240.891 37.9858 239.539 37.9858C237.689 37.9858 236.237 36.554 236.237 33.9091C236.237 31.2642 237.689 29.8324 239.539 29.8324C240.891 29.8324 242.104 30.5881 242.402 32H243.635ZM250.627 39H251.86V35.6989L253.133 34.267L256.673 39H258.164L253.889 33.4119L258.164 28.8182H256.554L251.98 33.8693H251.86V28.8182H250.627V39ZM264.76 39H270.726V37.9062H265.993V28.8182H264.76V39ZM278.868 28.8182H277.635V39H278.868V28.8182ZM294.414 28.8182H293.201V36.8324H293.102L287.534 28.8182H286.34V39H287.573V31.0057H287.673L293.221 39H294.414V28.8182ZM301.881 39H303.114V35.6989L304.387 34.267L307.927 39H309.418L305.143 33.4119L309.418 28.8182H307.808L303.234 33.8693H303.114V28.8182H301.881V39ZM321.582 31.3636H322.776C322.721 29.8274 321.304 28.679 319.335 28.679C317.386 28.679 315.855 29.8125 315.855 31.5227C315.855 32.8949 316.849 33.7102 318.44 34.1676L319.693 34.5256C320.767 34.8239 321.722 35.2017 321.722 36.2159C321.722 37.3295 320.648 38.0653 319.236 38.0653C318.023 38.0653 316.949 37.5284 316.849 36.375H315.577C315.696 38.0455 317.048 39.179 319.236 39.179C321.582 39.179 322.915 37.8864 322.915 36.2358C322.915 34.3267 321.105 33.7102 320.051 33.4318L319.017 33.1534C318.261 32.9545 317.048 32.5568 317.048 31.4631C317.048 30.4886 317.943 29.7727 319.295 29.7727C320.528 29.7727 321.463 30.3594 321.582 31.3636Z" fill="#6C3EF8"/>
<defs>
<filter id="filter0_f_1_476" x="0" y="1" width="68" height="68" filterUnits="userSpaceOnUse" color-interpolation-filters="sRGB">
<feFlood flood-opacity="0" result="BackgroundImageFix"/>
<feBlend mode="normal" in="SourceGraphic" in2="BackgroundImageFix" result="shape"/>
<feGaussianBlur stdDeviation="5" result="effect1_foregroundBlur_1_476"/>
</filter>
</defs>
</svg>
